<svg version="1.1" xmlns="http://www.w3.org/2000/svg" xmlns:xlink="http://www.w3.org/1999/xlink" width="784.8544921875" height="172"><defs/><g><g transform="translate(-334,-774) scale(1,1)"><path fill="#6dceff" stroke="#000000" d="M 344 792 L 429.47900390625 792 L 429.47900390625 824 C 401.47900390625 814 372 831.5 344 819 L 344 792 Z" stroke-miterlimit="10"/></g><g transform="translate(-334,-774) scale(1,1)"><g><path fill="none" stroke="none"/><text fill="#000000" stroke="none" font-family="Arial" font-size="13px" font-style="normal" font-weight="normal" text-decoration="none" x="369.04541015625" y="812">HTML</text></g></g><g transform="translate(-334,-774) scale(1,1)"><path fill="#6dceff" stroke="#000000" d="M 344 904 L 429.47900390625 904 L 429.47900390625 936 C 401.47900390625 926 372 943.5 344 931 L 344 904 Z" stroke-miterlimit="10"/></g><g transform="translate(-334,-774) scale(1,1)"><g><path fill="none" stroke="none"/><text fill="#000000" stroke="none" font-family="Arial" font-size="13px" font-style="normal" font-weight="normal" text-decoration="none" x="373.37451171875" y="924">CSS</text></g></g><g transform="translate(-334,-774) scale(1,1)"><path fill="#d1ffa3" stroke="none" d="M 580 784 L 640 784 L 628 832 L 568 832 L 580 784"/></g><g transform="translate(-334,-774) scale(1,1)"><path fill="none" stroke="#000000" d="M 580 784 L 640 784 L 628 832 L 568 832 L 580 784 L 580 784" stroke-miterlimit="10"/></g><g transform="translate(-334,-774) scale(1,1)"><g><path fill="none" stroke="none"/><text fill="#000000" stroke="none" font-family="Arial" font-size="13px" font-style="normal" font-weight="normal" text-decoration="none" x="588.83544921875" y="806.5">DOM</text><text fill="#000000" stroke="none" font-family="Arial" font-size="13px" font-style="normal" font-weight="normal" text-decoration="none" x="590.876220703125" y="819.5">Tree</text></g></g><g transform="translate(-334,-774) scale(1,1)"><path fill="#d1ffa3" stroke="none" d="M 565 888 L 632 888 L 619 936 L 552 936 L 565 888"/></g><g transform="translate(-334,-774) scale(1,1)"><path fill="none" stroke="#000000" d="M 565 888 L 632 888 L 619 936 L 552 936 L 565 888 L 565 888" stroke-miterlimit="10"/></g><g transform="translate(-334,-774) scale(1,1)"><g><path fill="none" stroke="none"/><text fill="#000000" stroke="none" font-family="Arial" font-size="13px" font-style="normal" font-weight="normal" text-decoration="none" x="568.16455078125" y="910.5">CSSOM</text><text fill="#000000" stroke="none" font-family="Arial" font-size="13px" font-style="normal" font-weight="normal" text-decoration="none" x="578.876220703125" y="923.5">Tree</text></g></g><g transform="translate(-334,-774) scale(1,1)"><path fill="#d1ffa3" stroke="none" d="M 778 832 L 829.63720703125 832 L 819.63720703125 877 L 768 877 L 778 832"/></g><g transform="translate(-334,-774) scale(1,1)"><path fill="none" stroke="#000000" d="M 778 832 L 829.63720703125 832 L 819.63720703125 877 L 768 877 L 778 832 L 778 832" stroke-miterlimit="10"/></g><g transform="translate(-334,-774) scale(1,1)"><g><path fill="none" stroke="none"/><text fill="#000000" stroke="none" font-family="Arial" font-size="13px" font-style="normal" font-weight="normal" text-decoration="none" x="777.5" y="854.5">Render</text><text fill="#000000" stroke="none" font-family="Arial" font-size="13px" font-style="normal" font-weight="normal" text-decoration="none" x="785.69482421875" y="867.5">Tree</text></g></g><g transform="translate(-334,-774) scale(1,1)"><path fill="none" stroke="#000000" d="M 429 808 L 568 808" stroke-miterlimit="10"/></g><g transform="translate(-334,-774) scale(1,1)"><path fill="#000000" stroke="none" d="M 557.8373251423759 812.209517756016 L 568 808 L 557.8373251423758 803.790482243984"/></g><g transform="translate(-334,-774) scale(1,1)"><path fill="none" stroke="#000000" d="M 557.8373251423759 812.209517756016 L 568 808 L 557.8373251423758 803.790482243984 L 557.8373251423759 812.209517756016" stroke-miterlimit="10"/></g><g transform="translate(-334,-774) scale(1,1)"><path fill="none" stroke="#000000" d="M 429 918 L 552 918" stroke-miterlimit="10"/></g><g transform="translate(-334,-774) scale(1,1)"><path fill="#000000" stroke="none" d="M 541.8373251423759 922.209517756016 L 552 918 L 541.8373251423758 913.790482243984"/></g><g transform="translate(-334,-774) scale(1,1)"><path fill="none" stroke="#000000" d="M 541.8373251423759 922.209517756016 L 552 918 L 541.8373251423758 913.790482243984 L 541.8373251423759 922.209517756016" stroke-miterlimit="10"/></g><g transform="translate(-334,-774) scale(1,1)"><path fill="none" stroke="#000000" d="M 600 832 L 600 839 M 600 839 A 8 8 0 0 0 608 847 L 768 847" stroke-miterlimit="10"/></g><g transform="translate(-334,-774) scale(1,1)"><path fill="#000000" stroke="none" d="M 757.8373251423759 851.209517756016 L 768 847 L 757.8373251423758 842.790482243984"/></g><g transform="translate(-334,-774) scale(1,1)"><path fill="none" stroke="#000000" d="M 757.8373251423759 851.209517756016 L 768 847 L 757.8373251423758 842.790482243984 L 757.8373251423759 851.209517756016" stroke-miterlimit="10"/></g><g transform="translate(-334,-774) scale(1,1)"><path fill="none" stroke="#000000" d="M 600 888 L 600 872 M 600 872 A 8 8 0 0 1 608 864 L 768 864" stroke-miterlimit="10"/></g><g transform="translate(-334,-774) scale(1,1)"><path fill="#000000" stroke="none" d="M 757.8373251423759 868.209517756016 L 768 864 L 757.8373251423758 859.790482243984"/></g><g transform="translate(-334,-774) scale(1,1)"><path fill="none" stroke="#000000" d="M 757.8373251423759 868.209517756016 L 768 864 L 757.8373251423758 859.790482243984 L 757.8373251423759 868.209517756016" stroke-miterlimit="10"/></g><g transform="translate(-334,-774) scale(1,1)"><rect fill="#adc8ff" stroke="none" x="888" y="840" width="73.18994140625" height="32"/></g><g transform="translate(-334,-774) scale(1,1)"><path fill="none" stroke="#000000" d="M 888 840 L 961.18994140625 840 L 961.18994140625 872 L 888 872 L 888 840 Z Z" stroke-miterlimit="10"/></g><g transform="translate(-334,-774) scale(1,1)"><g><path fill="none" stroke="none"/><text fill="#000000" stroke="none" font-family="Arial" font-size="13px" font-style="normal" font-weight="normal" text-decoration="none" x="905.0791015625" y="862.5">Layout</text></g></g><g transform="translate(-334,-774) scale(1,1)"><path fill="#ffadd6" stroke="#000000" d="M 1040 856 L 1051 840 L 1097.8544921875 840 Q 1108.8544921875 840 1108.8544921875 856 Q 1108.8544921875 872 1097.8544921875 872 L 1051 872 L 1040 856 Z" stroke-miterlimit="10"/></g><g transform="translate(-334,-774) scale(1,1)"><g><path fill="none" stroke="none"/><text fill="#000000" stroke="none" font-family="Arial" font-size="13px" font-style="normal" font-weight="normal" text-decoration="none" x="1059.61181640625" y="862.5">Paint</text></g></g><g transform="translate(-334,-774) scale(1,1)"><path fill="none" stroke="#000000" d="M 830 855 L 888 855" stroke-miterlimit="10"/></g><g transform="translate(-334,-774) scale(1,1)"><path fill="#000000" stroke="none" d="M 877.8373251423759 859.209517756016 L 888 855 L 877.8373251423758 850.790482243984"/></g><g transform="translate(-334,-774) scale(1,1)"><path fill="none" stroke="#000000" d="M 877.8373251423759 859.209517756016 L 888 855 L 877.8373251423758 850.790482243984 L 877.8373251423759 859.209517756016" stroke-miterlimit="10"/></g><g transform="translate(-334,-774) scale(1,1)"><path fill="none" stroke="#000000" d="M 961 856 L 1040 856" stroke-miterlimit="10"/></g><g transform="translate(-334,-774) scale(1,1)"><path fill="#000000" stroke="none" d="M 1029.837325142376 860.209517756016 L 1040 856 L 1029.837325142376 851.790482243984"/></g><g transform="translate(-334,-774) scale(1,1)"><path fill="none" stroke="#000000" d="M 1029.837325142376 860.209517756016 L 1040 856 L 1029.837325142376 851.790482243984 L 1029.837325142376 860.209517756016" stroke-miterlimit="10"/></g></g></svg>